<svg width="96" height="96" viewBox="0 0 96 96" fill="none" xmlns="http://www.w3.org/2000/svg">
<g clip-path="url(#clip0_14_12)">
<rect width="96" height="96" rx="5" fill="#006CA2"/>
<g clip-path="url(#clip1_14_12)">
<path d="M90.7725 0H5.26501C2.43001 0 0.105011 2.3175 0.105011 5.16V90.6675C0.105011 93.51 2.43001 95.8275 5.26501 95.8275H90.7725C93.6075 95.8275 95.9325 93.51 95.9325 90.6675V5.16C95.9325 2.3175 93.6075 0 90.7725 0Z" fill="#006CA2"/>
<path d="M73.9575 28.7475H49.56C49.3501 28.7474 49.1436 28.6943 48.9598 28.593C48.7759 28.4918 48.6206 28.3457 48.5084 28.1683C48.3961 27.991 48.3305 27.7881 48.3177 27.5786C48.3049 27.3691 48.3452 27.1597 48.435 26.97L49.815 24.06H74.235V26.265L73.9575 28.7475Z" fill="white"/>
<path d="M62.91 14.9325C58.8675 14.9325 55.335 17.055 53.325 20.2425H72.4875C70.485 17.055 66.945 14.9325 62.91 14.9325ZM74.0175 24.06H51.795C51.6525 24.7725 51.5775 25.5075 51.5775 26.265C51.5775 32.52 56.6475 37.59 62.9025 37.59C69.1575 37.59 74.2275 32.52 74.2275 26.265C74.235 25.5075 74.16 24.7725 74.0175 24.06Z" fill="white"/>
<path d="M74.235 20.2425H49.815L48.18 15.6825C47.895 14.88 48.4875 14.04 49.335 14.04H74.235V20.2425ZM71.4 40.5825H54.225C50.0175 40.5825 46.305 42.69 44.0775 45.9L44.07 45.8925L36.6075 56.475L29.355 52.4175C28.8815 52.1536 28.3605 51.9857 27.822 51.9236C27.2835 51.8614 26.738 51.9062 26.2168 52.0553C25.6956 52.2044 25.209 52.4549 24.7848 52.7925C24.3606 53.1301 24.0073 53.5481 23.745 54.0225C23.4811 54.496 23.3132 55.017 23.2511 55.5555C23.1889 56.094 23.2337 56.6395 23.3828 57.1607C23.5319 57.6819 23.7825 58.1685 24.12 58.5927C24.4576 59.0168 24.8756 59.3702 25.35 59.6325L35.85 65.5125L35.8575 65.4975C37.68 66.5025 39.9975 66.0075 41.22 64.2675L48.225 54.3375H48.2475L47.0775 56.01C47.7 55.125 48.8025 54.3375 49.725 54.3375C50.6475 54.3375 51.585 55.0875 51.585 56.01V66.675L71.4 40.5825ZM78.2325 41.5425L56.1975 70.5375H74.235V56.01C74.235 55.0875 74.985 54.3375 75.9075 54.3375C76.83 54.3375 77.58 55.0875 77.58 56.01V76.7025C77.58 78.9825 79.425 80.8275 81.705 80.8275C83.985 80.8275 85.83 78.9825 85.83 76.7025V52.95C85.83 47.8125 82.695 43.41 78.2325 41.5425Z" fill="white"/>
<path d="M51.5775 75.645H74.235V81.795H51.5775V75.645Z" fill="white"/>
<path d="M5.5 33.5C4.94772 33.5 4.5 33.9477 4.5 34.5V39.25C4.5 39.8023 4.94772 40.25 5.5 40.25H11.8283C12.3226 40.25 12.7325 39.8841 12.8892 39.4152C13.1732 38.5654 13.6823 37.8021 14.3694 37.2107C15.275 36.431 16.43 36.0015 17.625 36C18.8204 36.001 19.9759 36.4302 20.8821 37.2099C21.5696 37.8014 22.079 38.565 22.3632 39.4152C22.5199 39.8841 22.9298 40.25 23.4241 40.25H29.75C30.3023 40.25 30.75 39.8023 30.75 39.25V34.5C30.75 33.9477 30.3023 33.5 29.75 33.5H5.5ZM17.625 37.5C16.6967 37.5 15.8065 37.8687 15.1501 38.5251C14.4937 39.1815 14.125 40.0717 14.125 41C14.125 41.9283 14.4937 42.8185 15.1501 43.4749C15.8065 44.1313 16.6967 44.5 17.625 44.5C18.0846 44.5 18.5398 44.4095 18.9644 44.2336C19.389 44.0577 19.7749 43.7999 20.0999 43.4749C20.4249 43.1499 20.6827 42.764 20.8586 42.3394C21.0345 41.9148 21.125 41.4596 21.125 41C21.125 40.5404 21.0345 40.0852 20.8586 39.6606C20.6827 39.236 20.4249 38.8501 20.0999 38.5251C19.7749 38.2001 19.389 37.9423 18.9644 37.7664C18.5398 37.5905 18.0846 37.5 17.625 37.5ZM5.5 41.75C4.94772 41.75 4.5 42.1977 4.5 42.75V47.5C4.5 48.0523 4.94772 48.5 5.5 48.5H29.75C30.3023 48.5 30.75 48.0523 30.75 47.5V42.75C30.75 42.1977 30.3023 41.75 29.75 41.75H23.4217C22.9274 41.75 22.5175 42.1159 22.3608 42.5848C22.0768 43.4346 21.5677 44.1979 20.8806 44.7893C19.975 45.569 18.82 45.9985 17.625 46C16.4296 45.999 15.2741 45.5698 14.3679 44.7901C13.6804 44.1986 13.171 43.435 12.8868 42.5848C12.7301 42.1159 12.3202 41.75 11.8259 41.75H5.5Z" fill="white"/>
</g>
</g>
<defs>
<clipPath id="clip0_14_12">
<rect width="96" height="96" rx="5" fill="white"/>
</clipPath>
<clipPath id="clip1_14_12">
<rect width="96" height="96" fill="white"/>
</clipPath>
</defs>
</svg>
